# xmcd
#
# Track frame offsets:
#       150
#       11217
#       42117
#       65427
#       103560
#       156285
#       190867
#       208132
#       232797
#       266185
#       288772
#
# Disc length: 4419 seconds
#
# Revision: 0
# Processed by: cddbd v1.4PL0 Copyright (c) Steve Scherf et al.
# Submitted via: WhereIsIt 3.51
#
DISCID=9611410b
DTITLE=Luther Allison - Where have You Been (11 out of 13 songs)
DYEAR=1996
DGENRE=Blues
TTITLE0=Introduction
TTITLE1=Gamblers Blues
TTITLE2=Sweet Home Chicago
TTITLE3=Same Thing
TTITLE4=Little Red Rooster
TTITLE5=Sky is Crying
TTITLE6=Back Down South
TTITLE7=Memories
TTITLE8=Spontaneous Improvisation
TTITLE9=Bad News Is Coming
TTITLE10=Put Your Money Where Your Mouth Is
EXTD=
EXTT0=
EXTT1=
EXTT2=
EXTT3=
EXTT4=
EXTT5=
EXTT6=
EXTT7=
EXTT8=
EXTT9=
EXTT10=
PLAYORDER=
